<svg width="221" height="69" viewBox="0 0 221 69" fill="none" xmlns="http://www.w3.org/2000/svg">
<g clip-path="url(#clip0_7411_6446)">
<path d="M68.4984 34.2492C68.4984 42.7986 65.3662 50.6158 60.1862 56.6165C60.1584 56.6488 60.1313 56.6805 60.1035 56.7121C60.0951 56.7218 60.0867 56.7309 60.0789 56.7406C53.8132 63.931 44.5937 68.4797 34.3119 68.4984H34.2492C34.151 68.4984 34.054 68.4977 33.9571 68.4971C28.9302 68.4551 24.1612 67.3307 19.8729 65.3436C19.5311 65.1859 19.1918 65.0218 18.8564 64.8525C7.67182 59.2162 0 47.6284 0 34.2492C0 15.3339 15.3339 0 34.2492 0C53.1644 0 68.4984 15.3339 68.4984 34.2492Z" fill="#F40C34"/>
<path d="M60.7969 49.5812C60.4298 48.4458 60.1752 47.2697 59.9316 46.0994C59.5497 44.2629 59.0805 43.8487 57.2194 43.8422C53.3848 43.828 49.5502 43.8151 45.7149 43.797C45.3996 43.7957 45.0842 43.7608 44.6118 43.7317C45.1831 42.8102 45.6619 42.0367 46.1705 41.2154C46.86 41.7815 47.483 42.2926 48.1091 42.807C48.2061 41.934 48.2959 41.1281 48.4167 40.0431C49.0739 40.8813 49.5224 41.4525 49.8274 41.8422C50.0549 40.3385 50.2921 38.772 50.515 37.2935C52.285 38.0011 53.8191 38.615 55.3538 39.2283C55.4301 39.1275 55.5063 39.026 55.5832 38.9252C52.3741 36.2803 53.3939 32.7513 53.3105 29.1706C55.2453 30.0779 56.9403 30.1206 58.738 29.1086C56.1965 28.8857 55.0566 27.2314 54.3173 25.2359C53.7965 23.8291 53.5102 22.337 53.0339 20.9108C51.0223 14.8907 47.3214 10.3956 41.1333 8.4111C37.826 7.35003 34.3733 6.97587 30.9929 7.91029C29.5092 8.32063 28.1806 8.92937 26.9238 9.81597C26.9121 9.82437 26.8998 9.83277 26.8876 9.84117C26.2633 10.269 25.4465 10.5074 24.7551 10.8144C24.0009 11.1485 23.2526 11.4993 22.5405 11.9174C19.65 13.6131 17.933 16.3879 16.4836 19.2616C15.6945 20.8261 14.6108 22.0113 13.3352 23.0969C12.7756 23.5732 12.1391 23.9596 11.5381 24.3867C11.553 24.4617 11.5685 24.5367 11.584 24.6116C12.7103 24.4378 13.836 24.2646 15.2306 24.0494C13.8994 26.6343 12.6309 29.097 11.343 31.5991C12.2955 31.2333 13.3281 30.8366 14.3924 30.4275C15.091 33.4557 15.7236 36.4644 13.3811 39.2373C14.4939 38.8722 15.606 38.5065 16.9799 38.0554C16.8442 39.5436 16.722 40.88 16.5721 42.5168C17.3992 41.7653 18.1101 41.1184 18.7479 40.5394C19.3773 42.0955 20.1256 43.9476 20.9663 46.0264C21.0536 44.8768 21.1214 43.9773 21.1893 43.0778C22.3854 46.4406 25.6287 47.8067 28.0598 50.2242C25.6533 50.3935 24.5955 51.8598 23.769 53.7299C23.0652 55.3202 22.114 56.8007 21.2778 58.3322C20.9457 58.9416 20.2154 59.4269 20.7279 60.3109C20.8003 60.4356 21.007 60.5416 20.8726 60.8085C20.428 61.6886 19.6642 63.8696 19.6145 65.3436C23.9027 67.3307 28.6718 68.4551 33.6986 68.4971C33.7956 68.4978 33.8925 68.4984 33.9907 68.4984H34.12C44.427 68.4984 53.6711 63.9459 59.9497 56.7406C59.9413 56.6837 59.9329 56.6404 59.9277 56.6165C59.9245 56.6023 59.9225 56.5946 59.9225 56.5939C59.213 55.1251 59.5988 53.9645 60.4234 52.7948C61.1368 51.7829 61.1717 50.7399 60.7969 49.5812ZM47.8448 38.2182C46.6778 39.9882 44.9679 41.0448 42.7152 41.6897C43.3705 40.4994 43.9178 39.5055 44.4652 38.5116C44.5169 38.5278 44.5679 38.5446 44.6196 38.5614C44.5905 38.8554 44.5614 39.1488 44.5324 39.4389C45.3233 39.2373 45.2665 39.2302 45.3582 38.4535C45.4338 37.8189 45.2374 36.8748 46.2784 37.0286C46.1912 36.3946 46.1001 35.7277 46.009 35.0615C46.1149 35.0305 46.2209 34.9995 46.3269 34.9684C46.5479 35.1281 46.7696 35.2877 47.0823 35.5139C46.8665 34.7746 45.7544 34.2873 46.6474 33.4486C47.8881 34.107 48.6804 36.951 47.8448 38.2182ZM15.9065 26.3066C15.8102 26.2995 15.7139 26.2924 15.6176 26.2853C15.7029 25.1383 15.7882 23.9913 15.8658 22.9476C15.1756 23.1925 14.3776 23.4762 13.4082 23.82C14.9546 22.2019 16.3343 20.7583 17.714 19.3146C17.6558 19.2513 17.5983 19.188 17.5401 19.1246C17.2959 19.2881 17.0509 19.451 16.5805 19.7657C16.6755 19.7024 16.7621 19.4277 16.8196 19.3237C16.903 19.1725 16.9876 19.0212 17.0729 18.8713C17.2429 18.5747 17.4167 18.2813 17.5963 17.9912C17.9466 17.4264 18.3175 16.8739 18.7136 16.3395C19.4755 15.3126 20.3311 14.3524 21.2959 13.5116C22.2549 12.6748 23.3192 11.962 24.4636 11.4037C25.0433 11.1207 25.643 10.877 26.2549 10.6716C26.5703 10.5662 26.8889 10.4706 27.21 10.3846C27.3263 10.3536 27.5706 10.342 27.6591 10.2619C27.7205 10.2056 27.7548 10.0557 27.7884 9.97946C27.8375 9.8696 27.8866 9.7591 27.9357 9.64925C27.9525 9.61177 27.9693 9.57364 27.9984 9.54133C28.0275 9.50966 28.0656 9.48898 28.1031 9.46895C29.2314 8.86733 30.4514 8.46151 31.7051 8.21724C32.8954 7.9846 34.1122 7.89414 35.3245 7.92063C36.5827 7.94842 37.8383 8.10222 39.0674 8.37492C40.3023 8.64891 41.5126 9.0431 42.6661 9.5633C43.7976 10.0732 44.8768 10.7058 45.8558 11.4703C46.7159 12.1417 47.4978 12.9152 48.1557 13.7869C46.0322 12.026 43.7873 10.4719 41.1113 9.68866C38.4573 8.91192 35.7872 8.49705 32.909 9.49415C33.2792 9.73648 33.5087 9.8864 33.8951 10.1391C33.2818 10.2412 32.8217 10.3174 32.0094 10.4518C35.3982 12.1255 37.3471 14.7847 38.732 17.6875C37.3627 16.4022 35.9584 14.8926 34.3571 13.6338C32.6983 12.3304 30.761 11.5233 28.3571 11.5788C29.0071 12.0111 29.506 12.342 30.2744 12.8532C29.7018 12.8228 29.442 12.8092 29.1241 12.7924C29.2702 13.0755 29.3994 13.3268 29.5409 13.6015C29.3975 13.617 29.3277 13.6435 29.2669 13.6293C27.9723 13.3316 27.048 13.8113 26.494 15.0684C25.3341 17.723 24.5554 20.4746 24.2556 23.4691C23.8833 22.4914 23.5111 21.5137 23.0433 20.2865C22.7925 21.4471 22.5379 22.3971 22.3925 23.3631C22.2523 24.293 22.2252 25.2404 22.1308 26.3932C21.0652 22.9819 21.6571 19.8665 22.5489 16.7912C20.6982 17.5123 17.8555 21.5609 15.9065 26.3066ZM23.5279 34.624C23.484 34.6699 23.44 34.7158 23.3961 34.7623C22.5166 34.4153 21.6365 34.0683 20.5915 33.656C20.7531 33.4098 20.9812 33.0615 21.21 32.7138C21.21 32.7125 21.21 32.7119 21.21 32.7112C21.9822 33.349 22.7544 33.9862 23.5273 34.624H23.5279ZM21.2132 32.697C21.3133 32.1309 21.4135 31.5649 21.5137 30.9988C21.5886 31.0072 21.6642 31.0162 21.7392 31.0253C21.9828 31.6902 22.2258 32.3558 22.4746 33.035C22.0571 32.9232 21.6352 32.8101 21.2132 32.697ZM32.9497 55.0934L33.6715 50.895C33.7238 50.8252 33.7775 50.7554 33.8363 50.6856C34.6725 49.695 35.4453 48.6513 36.4037 47.4274C34.3377 48.2384 32.4456 48.9195 30.6078 49.7247C29.5829 50.1738 28.8107 49.9903 28.0049 49.2962C26.7868 48.2474 25.5305 47.2413 24.2665 46.2468C22.662 44.9841 21.9182 43.2975 21.6048 41.3226C21.4193 40.1549 20.9773 39.0292 20.7427 37.8667C20.5683 37.0008 20.5418 36.1051 20.4455 35.1927C21.2733 34.9019 21.6998 35.1332 21.8161 36.0638C21.8988 36.7287 22.0604 37.4312 22.3861 38.0024C22.6109 38.3966 23.2365 38.8877 23.579 38.8192C24.2284 38.6893 24.5153 37.8486 24.4203 37.3174C24.337 36.856 24.2058 36.4037 24.1302 36.0767C25.0678 36.9471 26.0656 37.8725 27.0627 38.7979C27.1312 38.7281 27.199 38.6583 27.2675 38.5885C27.0097 38.1194 26.7512 37.6509 26.4934 37.1817C26.547 37.1423 26.6013 37.1035 26.6549 37.0641C27.7503 37.8551 28.8462 38.6467 30.171 39.6037C28.2931 36.058 28.7616 32.5128 28.7874 28.8223C29.897 29.6611 30.8385 30.3732 31.917 31.1888C30.9729 31.7419 30.1167 32.244 29.2611 32.7455C29.2928 32.8172 29.3238 32.8883 29.3554 32.9594C29.8046 32.7765 30.2925 32.655 30.6963 32.3998C32.2621 31.4104 33.5985 31.8376 34.9503 33.1022C32.9038 33.4938 30.5128 33.3891 30.4482 36.3817C30.6931 36.0192 30.938 35.6573 31.2592 35.1817C31.4892 36.2286 31.4899 37.2599 32.4708 37.9035C32.7868 38.111 33.1571 38.2745 33.5326 38.2312C33.804 38.1995 34.0521 38.0625 34.2712 37.8997C34.9045 37.4286 35.2605 36.7436 35.1959 35.9559C35.1804 35.7659 35.0415 34.266 34.9452 34.2382C35.634 34.434 36.931 34.4579 37.13 34.9381C37.4486 35.7051 37.0383 36.7746 36.9245 37.8208C37.3749 36.9581 37.8215 36.1026 38.2531 35.276C38.9032 36.2034 38.71 38.3268 37.8518 40.3352C38.3229 39.9914 38.794 39.647 39.4267 39.1856C39.5914 41.4092 39.9223 43.5133 38.8044 45.607C39.3032 45.207 39.815 44.8206 40.299 44.4031C40.8063 43.9663 41.2871 43.4997 41.8629 42.9698C42.2357 45.1779 42.6209 47.2523 42.902 49.3408C42.9427 49.6433 42.5614 50.1253 42.2487 50.3334C41.0454 51.1334 39.8176 51.8985 38.5969 52.6746C36.5782 53.7726 34.3752 54.8278 32.9497 55.0934Z" fill="#1A1A1A"/>
<path d="M60.4234 52.7948C59.5988 53.9645 59.213 55.1251 59.9225 56.5939C59.9225 56.5939 59.9245 56.6023 59.9277 56.6165C59.9329 56.6404 59.9413 56.6837 59.9497 56.7406C53.6711 63.9459 44.427 68.4984 34.12 68.4984H33.9907C33.8925 68.4984 33.7956 68.4984 33.6986 68.4971C28.6718 68.4551 23.9027 67.3307 19.6145 65.3436C19.6642 63.8696 20.428 61.6886 20.8726 60.8085C21.007 60.5416 20.8003 60.4356 20.7279 60.3109C20.2154 59.4269 20.9457 58.9416 21.2778 58.3322C22.114 56.8007 23.0652 55.3202 23.769 53.7299C24.5955 51.8598 25.6533 50.3935 28.0598 50.2242C25.6287 47.8067 22.3854 46.4406 21.1893 43.0778C21.1214 43.9773 21.0536 44.8768 20.9663 46.0264C20.1256 43.9476 19.3773 42.0955 18.7479 40.5394C18.1101 41.1184 17.3992 41.7653 16.5721 42.5168C16.722 40.88 16.8442 39.5436 16.9799 38.0554C15.606 38.5065 14.4939 38.8722 13.3811 39.2373C15.7236 36.4644 15.091 33.4557 14.3924 30.4275C13.3281 30.8366 12.2955 31.2333 11.343 31.5991C12.6309 29.097 13.8994 26.6343 15.2306 24.0494C13.836 24.2646 12.7103 24.4378 11.584 24.6116C11.5685 24.5367 11.553 24.4617 11.5381 24.3867C12.1391 23.9596 12.7756 23.5732 13.3352 23.0969C14.6108 22.0113 15.6945 20.8261 16.4836 19.2616C17.933 16.3879 19.65 13.6131 22.5405 11.9174C23.2526 11.4993 24.0009 11.1485 24.7551 10.8144C25.4465 10.5074 26.2633 10.269 26.8876 9.84117C26.8998 9.83277 26.9121 9.82437 26.9238 9.81597C28.1806 8.92937 29.5092 8.32063 30.9929 7.91029C34.3733 6.97587 37.826 7.35003 41.1333 8.4111C47.3214 10.3956 51.0223 14.8907 53.0339 20.9108C53.5102 22.337 53.7965 23.8291 54.3173 25.2359C55.0566 27.2314 56.1965 28.8857 58.738 29.1086C56.9403 30.1206 55.2453 30.0779 53.3105 29.1706C53.3939 32.7513 52.3741 36.2803 55.5832 38.9252C55.5063 39.026 55.4301 39.1275 55.3538 39.2283C53.8191 38.615 52.285 38.0011 50.515 37.2935C50.2921 38.772 50.0549 40.3385 49.8274 41.8422C49.5224 41.4525 49.0739 40.8813 48.4167 40.0431C48.2959 41.1281 48.2061 41.934 48.1091 42.807C47.483 42.2926 46.86 41.7815 46.1705 41.2154C45.6619 42.0367 45.1831 42.8102 44.6118 43.7317C45.0842 43.7608 45.3996 43.7957 45.7149 43.797C49.5502 43.8151 53.3848 43.828 57.2194 43.8422C59.0805 43.8487 59.5497 44.2629 59.9316 46.0994C60.1752 47.2697 60.4298 48.4458 60.7969 49.5812C61.1717 50.7399 61.1368 51.7829 60.4234 52.7948Z" fill="white"/>
<path d="M60.7969 49.5812C60.4298 48.4458 60.1752 47.2697 59.9316 46.0994C59.5497 44.2629 59.0805 43.8487 57.2194 43.8422C53.3848 43.828 49.5502 43.8151 45.7149 43.797C45.3996 43.7957 45.0842 43.7608 44.6118 43.7317C45.1831 42.8102 45.6619 42.0367 46.1705 41.2154C46.86 41.7815 47.483 42.2926 48.1091 42.807C48.2061 41.934 48.2959 41.1281 48.4167 40.0431C49.0739 40.8813 49.5224 41.4525 49.8274 41.8422C50.0549 40.3385 50.2921 38.772 50.515 37.2935C52.285 38.0011 53.8191 38.615 55.3538 39.2283C55.4301 39.1275 55.5063 39.026 55.5832 38.9252C52.3741 36.2803 53.3939 32.7513 53.3105 29.1706C55.2453 30.0779 56.9403 30.1206 58.738 29.1086C56.1965 28.8857 55.0566 27.2314 54.3173 25.2359C53.7965 23.8291 53.5102 22.337 53.0339 20.9108C51.0223 14.8907 47.3214 10.3956 41.1333 8.4111C37.826 7.35003 34.3733 6.97587 30.9929 7.91029C29.5092 8.32063 28.1806 8.92937 26.9238 9.81597C26.9121 9.82437 26.8998 9.83277 26.8876 9.84117C26.2633 10.269 25.4465 10.5074 24.7551 10.8144C24.0009 11.1485 23.2526 11.4993 22.5405 11.9174C19.65 13.6131 17.933 16.3879 16.4836 19.2616C15.6945 20.8261 14.6108 22.0113 13.3352 23.0969C12.7756 23.5732 12.1391 23.9596 11.5381 24.3867C11.553 24.4617 11.5685 24.5367 11.584 24.6116C12.7103 24.4378 13.836 24.2646 15.2306 24.0494C13.8994 26.6343 12.6309 29.097 11.343 31.5991C12.2955 31.2333 13.3281 30.8366 14.3924 30.4275C15.091 33.4557 15.7236 36.4644 13.3811 39.2373C14.4939 38.8722 15.606 38.5065 16.9799 38.0554C16.8442 39.5436 16.722 40.88 16.5721 42.5168C17.3992 41.7653 18.1101 41.1184 18.7479 40.5394C19.3773 42.0955 20.1256 43.9476 20.9663 46.0264C21.0536 44.8768 21.1214 43.9773 21.1893 43.0778C22.3854 46.4406 25.6287 47.8067 28.0598 50.2242C25.6533 50.3935 24.5955 51.8598 23.769 53.7299C23.0652 55.3202 22.114 56.8007 21.2778 58.3322C20.9457 58.9416 20.2154 59.4269 20.7279 60.3109C20.8003 60.4356 21.007 60.5416 20.8726 60.8085C20.428 61.6886 19.6642 63.8696 19.6145 65.3436C23.9027 67.3307 28.6718 68.4551 33.6986 68.4971C33.7956 68.4978 33.8925 68.4984 33.9907 68.4984H34.12C44.427 68.4984 53.6711 63.9459 59.9497 56.7406C59.9413 56.6837 59.9329 56.6404 59.9277 56.6165C59.9245 56.6023 59.9225 56.5946 59.9225 56.5939C59.213 55.1251 59.5988 53.9645 60.4234 52.7948C61.1368 51.7829 61.1717 50.7399 60.7969 49.5812ZM47.8448 38.2182C46.6778 39.9882 44.9679 41.0448 42.7152 41.6897C43.3705 40.4994 43.9178 39.5055 44.4652 38.5116C44.5169 38.5278 44.5679 38.5446 44.6196 38.5614C44.5905 38.8554 44.5614 39.1488 44.5324 39.4389C45.3233 39.2373 45.2665 39.2302 45.3582 38.4535C45.4338 37.8189 45.2374 36.8748 46.2784 37.0286C46.1912 36.3946 46.1001 35.7277 46.009 35.0615C46.1149 35.0305 46.2209 34.9995 46.3269 34.9684C46.5479 35.1281 46.7696 35.2877 47.0823 35.5139C46.8665 34.7746 45.7544 34.2873 46.6474 33.4486C47.8881 34.107 48.6804 36.951 47.8448 38.2182ZM15.9065 26.3066C15.8102 26.2995 15.7139 26.2924 15.6176 26.2853C15.7029 25.1383 15.7882 23.9913 15.8658 22.9476C15.1756 23.1925 14.3776 23.4762 13.4082 23.82C14.9546 22.2019 16.3343 20.7583 17.714 19.3146C17.6558 19.2513 17.5983 19.188 17.5401 19.1246C17.2959 19.2881 17.0509 19.451 16.5805 19.7657C16.6755 19.7024 16.7621 19.4277 16.8196 19.3237C16.903 19.1725 16.9876 19.0212 17.0729 18.8713C17.2429 18.5747 17.4167 18.2813 17.5963 17.9912C17.9466 17.4264 18.3175 16.8739 18.7136 16.3395C19.4755 15.3126 20.3311 14.3524 21.2959 13.5116C22.2549 12.6748 23.3192 11.962 24.4636 11.4037C25.0433 11.1207 25.643 10.877 26.2549 10.6716C26.5703 10.5662 26.8889 10.4706 27.21 10.3846C27.3263 10.3536 27.5706 10.342 27.6591 10.2619C27.7205 10.2056 27.7548 10.0557 27.7884 9.97946C27.8375 9.8696 27.8866 9.7591 27.9357 9.64925C27.9525 9.61177 27.9693 9.57364 27.9984 9.54133C28.0275 9.50966 28.0656 9.48898 28.1031 9.46895C29.2314 8.86733 30.4514 8.46151 31.7051 8.21724C32.8954 7.9846 34.1122 7.89414 35.3245 7.92063C36.5827 7.94842 37.8383 8.10222 39.0674 8.37492C40.3023 8.64891 41.5126 9.0431 42.6661 9.5633C43.7976 10.0732 44.8768 10.7058 45.8558 11.4703C46.7159 12.1417 47.4978 12.9152 48.1557 13.7869C46.0322 12.026 43.7873 10.4719 41.1113 9.68866C38.4573 8.91192 35.7872 8.49705 32.909 9.49415C33.2792 9.73648 33.5087 9.8864 33.8951 10.1391C33.2818 10.2412 32.8217 10.3174 32.0094 10.4518C35.3982 12.1255 37.3471 14.7847 38.732 17.6875C37.3627 16.4022 35.9584 14.8926 34.3571 13.6338C32.6983 12.3304 30.761 11.5233 28.3571 11.5788C29.0071 12.0111 29.506 12.342 30.2744 12.8532C29.7018 12.8228 29.442 12.8092 29.1241 12.7924C29.2702 13.0755 29.3994 13.3268 29.5409 13.6015C29.3975 13.617 29.3277 13.6435 29.2669 13.6293C27.9723 13.3316 27.048 13.8113 26.494 15.0684C25.3341 17.723 24.5554 20.4746 24.2556 23.4691C23.8833 22.4914 23.5111 21.5137 23.0433 20.2865C22.7925 21.4471 22.5379 22.3971 22.3925 23.3631C22.2523 24.293 22.2252 25.2404 22.1308 26.3932C21.0652 22.9819 21.6571 19.8665 22.5489 16.7912C20.6982 17.5123 17.8555 21.5609 15.9065 26.3066ZM23.5279 34.624C23.484 34.6699 23.44 34.7158 23.3961 34.7623C22.5166 34.4153 21.6365 34.0683 20.5915 33.656C20.7531 33.4098 20.9812 33.0615 21.21 32.7138C21.21 32.7125 21.21 32.7119 21.21 32.7112C21.9822 33.349 22.7544 33.9862 23.5273 34.624H23.5279ZM21.2132 32.697C21.3133 32.1309 21.4135 31.5649 21.5137 30.9988C21.5886 31.0072 21.6642 31.0162 21.7392 31.0253C21.9828 31.6902 22.2258 32.3558 22.4746 33.035C22.0571 32.9232 21.6352 32.8101 21.2132 32.697ZM32.9497 55.0934L33.6715 50.895C33.7238 50.8252 33.7775 50.7554 33.8363 50.6856C34.6725 49.695 35.4453 48.6513 36.4037 47.4274C34.3377 48.2384 32.4456 48.9195 30.6078 49.7247C29.5829 50.1738 28.8107 49.9903 28.0049 49.2962C26.7868 48.2474 25.5305 47.2413 24.2665 46.2468C22.662 44.9841 21.9182 43.2975 21.6048 41.3226C21.4193 40.1549 20.9773 39.0292 20.7427 37.8667C20.5683 37.0008 20.5418 36.1051 20.4455 35.1927C21.2733 34.9019 21.6998 35.1332 21.8161 36.0638C21.8988 36.7287 22.0604 37.4312 22.3861 38.0024C22.6109 38.3966 23.2365 38.8877 23.579 38.8192C24.2284 38.6893 24.5153 37.8486 24.4203 37.3174C24.337 36.856 24.2058 36.4037 24.1302 36.0767C25.0678 36.9471 26.0656 37.8725 27.0627 38.7979C27.1312 38.7281 27.199 38.6583 27.2675 38.5885C27.0097 38.1194 26.7512 37.6509 26.4934 37.1817C26.547 37.1423 26.6013 37.1035 26.6549 37.0641C27.7503 37.8551 28.8462 38.6467 30.171 39.6037C28.2931 36.058 28.7616 32.5128 28.7874 28.8223C29.897 29.6611 30.8385 30.3732 31.917 31.1888C30.9729 31.7419 30.1167 32.244 29.2611 32.7455C29.2928 32.8172 29.3238 32.8883 29.3554 32.9594C29.8046 32.7765 30.2925 32.655 30.6963 32.3998C32.2621 31.4104 33.5985 31.8376 34.9503 33.1022C32.9038 33.4938 30.5128 33.3891 30.4482 36.3817C30.6931 36.0192 30.938 35.6573 31.2592 35.1817C31.4892 36.2286 31.4899 37.2599 32.4708 37.9035C32.7868 38.111 33.1571 38.2745 33.5326 38.2312C33.804 38.1995 34.0521 38.0625 34.2712 37.8997C34.9045 37.4286 35.2605 36.7436 35.1959 35.9559C35.1804 35.7659 35.0415 34.266 34.9452 34.2382C35.634 34.434 36.931 34.4579 37.13 34.9381C37.4486 35.7051 37.0383 36.7746 36.9245 37.8208C37.3749 36.9581 37.8215 36.1026 38.2531 35.276C38.9032 36.2034 38.71 38.3268 37.8518 40.3352C38.3229 39.9914 38.794 39.647 39.4267 39.1856C39.5914 41.4092 39.9223 43.5133 38.8044 45.607C39.3032 45.207 39.815 44.8206 40.299 44.4031C40.8063 43.9663 41.2871 43.4997 41.8629 42.9698C42.2357 45.1779 42.6209 47.2523 42.902 49.3408C42.9427 49.6433 42.5614 50.1253 42.2487 50.3334C41.0454 51.1334 39.8176 51.8985 38.5969 52.6746C36.5782 53.7726 34.3752 54.8278 32.9497 55.0934Z" fill="#1A1A1A"/>
</g>
<path d="M86.1167 41.0564L85.4945 38.9753H80.324L79.7019 41.0564H74.8532L80.2382 26.2959H85.752L91.137 41.0564H86.1167ZM81.3109 35.6714H84.5076L82.9629 30.4151H82.8771L81.3109 35.6714ZM103.48 41.0564L97.2797 33.8907V41.0564H92.9245V26.2959H97.0652L103.265 33.5689V26.2959H107.621V41.0564H103.48ZM111.011 41.0564V26.2959H115.752V41.0564H111.011Z" fill="#F40C34"/>
<path d="M129.132 26.2959H135.011L129.712 32.3674L135.118 41.0564H129.519L126.451 35.6499L123.876 37.7524V41.0564H119.135V26.2959H123.876V32.6034L129.132 26.2959ZM143.61 26.0384C146.156 26.0384 148.123 26.6892 149.51 27.9908C150.898 29.2923 151.591 31.1875 151.591 33.6761C151.591 36.1648 150.898 38.06 149.51 39.3615C148.123 40.6631 146.156 41.3138 143.61 41.3138C141.064 41.3138 139.098 40.6702 137.71 39.383C136.337 38.0814 135.651 36.1791 135.651 33.6761C135.651 31.1732 136.337 29.278 137.71 27.9908C139.098 26.6892 141.064 26.0384 143.61 26.0384ZM143.61 29.5784C142.595 29.5784 141.822 29.8859 141.293 30.5009C140.764 31.1159 140.499 31.9455 140.499 32.9896V34.3627C140.499 35.4068 140.764 36.2363 141.293 36.8514C141.822 37.4664 142.595 37.7739 143.61 37.7739C144.626 37.7739 145.398 37.4664 145.927 36.8514C146.471 36.2363 146.743 35.4068 146.743 34.3627V32.9896C146.743 31.9455 146.471 31.1159 145.927 30.5009C145.398 29.8859 144.626 29.5784 143.61 29.5784ZM164.142 26.2959H170.021L164.721 32.3674L170.128 41.0564H164.528L161.46 35.6499L158.886 37.7524V41.0564H154.144V26.2959H158.886V32.6034L164.142 26.2959ZM178.62 26.0384C181.166 26.0384 183.133 26.6892 184.52 27.9908C185.907 29.2923 186.601 31.1875 186.601 33.6761C186.601 36.1648 185.907 38.06 184.52 39.3615C183.133 40.6631 181.166 41.3138 178.62 41.3138C176.074 41.3138 174.108 40.6702 172.72 39.383C171.347 38.0814 170.661 36.1791 170.661 33.6761C170.661 31.1732 171.347 29.278 172.72 27.9908C174.108 26.6892 176.074 26.0384 178.62 26.0384ZM178.62 29.5784C177.605 29.5784 176.832 29.8859 176.303 30.5009C175.774 31.1159 175.509 31.9455 175.509 32.9896V34.3627C175.509 35.4068 175.774 36.2363 176.303 36.8514C176.832 37.4664 177.605 37.7739 178.62 37.7739C179.636 37.7739 180.408 37.4664 180.937 36.8514C181.481 36.2363 181.752 35.4068 181.752 34.3627V32.9896C181.752 31.9455 181.481 31.1159 180.937 30.5009C180.408 29.8859 179.636 29.5784 178.62 29.5784ZM203.164 30.8227C203.164 31.7238 202.921 32.5391 202.434 33.2685C201.948 33.998 201.24 34.5343 200.31 34.8776L203.593 41.0564H198.272L195.655 35.6714H193.896V41.0564H189.154V26.2959H198.186C199.245 26.2959 200.146 26.5033 200.89 26.9181C201.648 27.3185 202.213 27.8692 202.585 28.57C202.971 29.2566 203.164 30.0075 203.164 30.8227ZM198.337 31.0158C198.337 30.6296 198.208 30.3078 197.95 30.0504C197.693 29.7929 197.378 29.6642 197.006 29.6642H193.896V32.3889H197.006C197.378 32.3889 197.693 32.2602 197.95 32.0027C198.208 31.731 198.337 31.402 198.337 31.0158ZM212.834 26.0384C215.38 26.0384 217.346 26.6892 218.734 27.9908C220.121 29.2923 220.815 31.1875 220.815 33.6761C220.815 36.1648 220.121 38.06 218.734 39.3615C217.346 40.6631 215.38 41.3138 212.834 41.3138C210.288 41.3138 208.321 40.6702 206.934 39.383C205.561 38.0814 204.874 36.1791 204.874 33.6761C204.874 31.1732 205.561 29.278 206.934 27.9908C208.321 26.6892 210.288 26.0384 212.834 26.0384ZM212.834 29.5784C211.818 29.5784 211.046 29.8859 210.517 30.5009C209.987 31.1159 209.723 31.9455 209.723 32.9896V34.3627C209.723 35.4068 209.987 36.2363 210.517 36.8514C211.046 37.4664 211.818 37.7739 212.834 37.7739C213.849 37.7739 214.622 37.4664 215.151 36.8514C215.694 36.2363 215.966 35.4068 215.966 34.3627V32.9896C215.966 31.9455 215.694 31.1159 215.151 30.5009C214.622 29.8859 213.849 29.5784 212.834 29.5784Z" fill="white"/>
<defs>
<clipPath id="clip0_7411_6446">
<rect width="68.4984" height="68.4984" fill="white"/>
</clipPath>
</defs>
</svg>
